<svg width="18" height="12" viewBox="0 0 18 12" fill="none" xmlns="http://www.w3.org/2000/svg">
<path d="M9.00001 3.60001C7.64591 3.60001 6.54547 4.67599 6.54547 6.00001C6.54547 7.32402 7.64591 8.40001 9.00001 8.40001C10.3541 8.40001 11.4546 7.32402 11.4546 6.00001C11.4546 4.67599 10.3541 3.60001 9.00001 3.60001Z" fill="#B3B3B3"/>
<path d="M9 0C4.90908 0 1.41547 2.48798 0 6C1.41547 9.51199 4.90908 12 9 12C13.095 12 16.5845 9.51199 18 6C16.5845 2.48798 13.095 0 9 0ZM9 9.99998C6.74182 9.99998 4.90908 8.20796 4.90908 5.99996C4.90908 3.79196 6.74182 1.99999 9 1.99999C11.2582 1.99999 13.0909 3.792 13.0909 6C13.0909 8.208 11.2582 9.99998 9 9.99998Z" fill="#B3B3B3"/>
</svg>
