<svg width="20" height="20" viewBox="0 0 20 20" fill="none" xmlns="http://www.w3.org/2000/svg">
<path d="M16 14C14.8972 14 14 14.8972 14 16C14 17.1028 14.8972 18 16 18C17.1028 18 18 17.1028 18 16C18 14.8972 17.1028 14 16 14Z" fill="#808080"/>
<path d="M19.252 4.23937C19.4821 4.23937 19.6994 4.34511 19.841 4.5264C19.9827 4.70769 20.0333 4.94387 19.9782 5.16727L18.1577 12.5239C18.0752 12.8576 17.7755 13.092 17.4315 13.092H5.78558C5.43945 13.092 5.13843 12.8546 5.05788 12.5177L2.62646 2.34409H0.748129C0.334924 2.34409 0 2.00916 0 1.59596C0 1.18275 0.334924 0.847831 0.748129 0.84787H3.21697C3.56311 0.84787 3.86412 1.08553 3.94467 1.42217L4.618 4.23937H19.252Z" fill="#808080"/>
<path d="M7 14C5.89718 14 5 14.8972 5 16C5 17.1028 5.89721 18 7 18C8.10279 18 9 17.1028 9 16C9 14.8972 8.10279 14 7 14Z" fill="#808080"/>
</svg>
